<mxfile host="app.diagrams.net" modified="2024-03-12T10:09:06.805Z" agent="Mozilla/5.0 (Windows NT 10.0; Win64; x64) AppleWebKit/537.36 (KHTML, like Gecko) Chrome/122.0.0.0 Safari/537.36" etag="nQ6BzvToPW7TFrpinhaS" version="24.0.5" type="device">
  <diagram name="페이지-1" id="ROYgzfK16EYU2n98Qd9F">
    <mxGraphModel dx="1434" dy="746" grid="1" gridSize="10" guides="1" tooltips="1" connect="1" arrows="1" fold="1" page="1" pageScale="1" pageWidth="827" pageHeight="1169" math="0" shadow="0">
      <root>
        <mxCell id="0" />
        <mxCell id="1" parent="0" />
        <mxCell id="vAHrbdVihd-z3Sm8bbNU-5" style="edgeStyle=orthogonalEdgeStyle;rounded=0;orthogonalLoop=1;jettySize=auto;html=1;exitX=1;exitY=0.5;exitDx=0;exitDy=0;entryX=0;entryY=0.5;entryDx=0;entryDy=0;" edge="1" parent="1" source="vAHrbdVihd-z3Sm8bbNU-1" target="vAHrbdVihd-z3Sm8bbNU-2">
          <mxGeometry relative="1" as="geometry" />
        </mxCell>
        <mxCell id="vAHrbdVihd-z3Sm8bbNU-11" value="T" style="edgeLabel;html=1;align=center;verticalAlign=middle;resizable=0;points=[];" vertex="1" connectable="0" parent="vAHrbdVihd-z3Sm8bbNU-5">
          <mxGeometry x="0.2632" relative="1" as="geometry">
            <mxPoint as="offset" />
          </mxGeometry>
        </mxCell>
        <mxCell id="vAHrbdVihd-z3Sm8bbNU-10" style="edgeStyle=orthogonalEdgeStyle;rounded=0;orthogonalLoop=1;jettySize=auto;html=1;exitX=0.5;exitY=1;exitDx=0;exitDy=0;" edge="1" parent="1" source="vAHrbdVihd-z3Sm8bbNU-1">
          <mxGeometry relative="1" as="geometry">
            <mxPoint x="240" y="630" as="targetPoint" />
          </mxGeometry>
        </mxCell>
        <mxCell id="vAHrbdVihd-z3Sm8bbNU-1" value="학점==A" style="rhombus;whiteSpace=wrap;html=1;" vertex="1" parent="1">
          <mxGeometry x="160" y="90" width="154" height="80" as="geometry" />
        </mxCell>
        <mxCell id="vAHrbdVihd-z3Sm8bbNU-6" style="edgeStyle=orthogonalEdgeStyle;rounded=0;orthogonalLoop=1;jettySize=auto;html=1;exitX=1;exitY=0.5;exitDx=0;exitDy=0;entryX=0;entryY=0.5;entryDx=0;entryDy=0;" edge="1" parent="1" source="vAHrbdVihd-z3Sm8bbNU-2" target="vAHrbdVihd-z3Sm8bbNU-3">
          <mxGeometry relative="1" as="geometry" />
        </mxCell>
        <mxCell id="vAHrbdVihd-z3Sm8bbNU-12" value="T" style="edgeLabel;html=1;align=center;verticalAlign=middle;resizable=0;points=[];" vertex="1" connectable="0" parent="vAHrbdVihd-z3Sm8bbNU-6">
          <mxGeometry x="-0.1316" y="-2" relative="1" as="geometry">
            <mxPoint as="offset" />
          </mxGeometry>
        </mxCell>
        <mxCell id="vAHrbdVihd-z3Sm8bbNU-7" style="edgeStyle=orthogonalEdgeStyle;rounded=0;orthogonalLoop=1;jettySize=auto;html=1;exitX=0.5;exitY=1;exitDx=0;exitDy=0;" edge="1" parent="1" source="vAHrbdVihd-z3Sm8bbNU-2" target="vAHrbdVihd-z3Sm8bbNU-4">
          <mxGeometry relative="1" as="geometry" />
        </mxCell>
        <mxCell id="vAHrbdVihd-z3Sm8bbNU-13" value="F" style="edgeLabel;html=1;align=center;verticalAlign=middle;resizable=0;points=[];" vertex="1" connectable="0" parent="vAHrbdVihd-z3Sm8bbNU-7">
          <mxGeometry x="0.1143" y="3" relative="1" as="geometry">
            <mxPoint as="offset" />
          </mxGeometry>
        </mxCell>
        <mxCell id="vAHrbdVihd-z3Sm8bbNU-2" value="숙제 제출 ==all" style="rhombus;whiteSpace=wrap;html=1;" vertex="1" parent="1">
          <mxGeometry x="390" y="90" width="154" height="80" as="geometry" />
        </mxCell>
        <mxCell id="vAHrbdVihd-z3Sm8bbNU-8" style="edgeStyle=orthogonalEdgeStyle;rounded=0;orthogonalLoop=1;jettySize=auto;html=1;exitX=0.5;exitY=1;exitDx=0;exitDy=0;" edge="1" parent="1" source="vAHrbdVihd-z3Sm8bbNU-3">
          <mxGeometry relative="1" as="geometry">
            <mxPoint x="240" y="630" as="targetPoint" />
          </mxGeometry>
        </mxCell>
        <mxCell id="vAHrbdVihd-z3Sm8bbNU-3" value="A+" style="rhombus;whiteSpace=wrap;html=1;" vertex="1" parent="1">
          <mxGeometry x="620" y="90" width="154" height="80" as="geometry" />
        </mxCell>
        <mxCell id="vAHrbdVihd-z3Sm8bbNU-9" style="edgeStyle=orthogonalEdgeStyle;rounded=0;orthogonalLoop=1;jettySize=auto;html=1;exitX=0.5;exitY=1;exitDx=0;exitDy=0;" edge="1" parent="1" source="vAHrbdVihd-z3Sm8bbNU-4">
          <mxGeometry relative="1" as="geometry">
            <mxPoint x="467" y="400" as="targetPoint" />
          </mxGeometry>
        </mxCell>
        <mxCell id="vAHrbdVihd-z3Sm8bbNU-4" value="A0" style="rhombus;whiteSpace=wrap;html=1;" vertex="1" parent="1">
          <mxGeometry x="390" y="240" width="154" height="80" as="geometry" />
        </mxCell>
      </root>
    </mxGraphModel>
  </diagram>
</mxfile>
